<svg xmlns="http://www.w3.org/2000/svg" width="50" height="50" viewBox="0 0 50 50">
    <g fill="#000" fill-rule="nonzero">
        <path d="M47.5 27.333h-45c-1.379 0-2.5 1.032-2.5 2.3 0 .422.373.765.833.765.46 0 .834-.343.834-.766 0-.422.374-.766.833-.766h.683L1.248 39.54a6.441 6.441 0 0 0 .967 4.682l1.118 1.713v2.757c0 .476.421.863.938.863h41.458c.517 0 .938-.387.938-.863v-2.757l1.118-1.713a6.441 6.441 0 0 0 .967-4.682l-1.935-10.675h.683c.46 0 .833.344.833.766 0 .423.373.766.834.766.46 0 .833-.343.833-.766 0-1.267-1.121-2.299-2.5-2.299zm-5.31 16.101l-.995 1.524H38.73l.589-1.354c.456-1.05.626-2.199.49-3.323l-1.379-11.415h2.53l1.98 10.927a5.01 5.01 0 0 1-.752 3.641zm-7.752 1.524l.556-1.79a6.345 6.345 0 0 0 .264-2.439l-1.023-11.863h2.52l1.399 11.584a4.985 4.985 0 0 1-.382 2.585l-.836 1.923h-2.498zm-4.39 0l.172-2.802c.01-.164.013-.33.01-.495l-.217-12.795h2.55l1.034 11.984a4.935 4.935 0 0 1-.206 1.897l-.686 2.21h-2.657zm-4.215 0V28.866h2.513l.218 12.819c.002.128 0 .258-.008.385l-.177 2.888h-2.546zm-4.217 0l-.195-2.868a4.974 4.974 0 0 1-.01-.428l.241-12.796h2.515v16.092h-2.55zm-12.81 0l-.995-1.524a5.01 5.01 0 0 1-.752-3.641l1.98-10.927h2.53l-1.38 11.415a6.412 6.412 0 0 0 .491 3.323l.589 1.354H8.805zm4.258 0l-.836-1.923a4.986 4.986 0 0 1-.382-2.584l1.4-11.585h2.518l-1.03 11.855c-.071.83.019 1.655.269 2.455l.557 1.782h-2.496zm4.23 0l-.69-2.206a4.934 4.934 0 0 1-.208-1.909l1.04-11.977h2.55l-.242 12.77c-.003.181.001.366.014.55l.188 2.772h-2.652zM2.892 39.793l1.98-10.927H7.35L5.415 39.54a6.441 6.441 0 0 0 .967 4.682l.48.735H4.637l-.994-1.524a5.01 5.01 0 0 1-.752-3.641zM45 48.023H5V46.49h40v1.533zm1.356-4.589l-.994 1.524h-2.223l.48-.735a6.441 6.441 0 0 0 .966-4.682L42.65 28.866h2.477l1.98 10.927a5.01 5.01 0 0 1-.751 3.641z"/>
        <path d="M8.833 27.778c.46 0 .834-.377.834-.842V1.684h30v25.252c0 .465.373.842.833.842.46 0 .833-.377.833-.842V1.684C41.333.755 40.586 0 39.667 0h-30C8.747 0 8 .755 8 1.684v25.252c0 .465.373.842.833.842z"/>
        <path d="M37.91 27.222c.48 0 .868-.343.868-.766V5.766c0-.423-.389-.766-.868-.766H11.868c-.48 0-.868.343-.868.766v20.69c0 .423.389.766.868.766.48 0 .868-.343.868-.766V14.962h8.68c.48 0 .869-.343.869-.767 0-.423-.39-.766-.868-.766h-8.68V6.533H24.02v19.923c0 .423.389.766.868.766.48 0 .868-.343.868-.766V14.962h11.285v11.494c0 .423.388.766.868.766zM25.757 13.43V6.533h11.285v6.896H25.757z"/>
    </g>
</svg>
