<svg xmlns="http://www.w3.org/2000/svg" width="32" height="24" viewBox="0 0 32 24">
    <g fill="#666" fill-rule="nonzero">
        <path d="M2.065 24c1.138 0 2.064-.916 2.064-2.043 0-.054-.012-.105-.016-.158l4.49-1.777c.371.55 1.003.914 1.72.914 1.138 0 2.064-.916 2.064-2.042 0-.175-.029-.341-.07-.503l6.832-4.225a2.058 2.058 0 0 0 3.487-.89h5.308a2.058 2.058 0 0 0 1.991 1.533c1.14 0 2.065-.917 2.065-2.043 0-1.127-.926-2.043-2.065-2.043-.959 0-1.76.654-1.99 1.532h-1.106V.511c0-.282-.23-.511-.516-.511H16a.513.513 0 0 0-.516.51v4.596H5.677a.513.513 0 0 0-.516.511v14.667l-1.378.545a2.068 2.068 0 0 0-1.718-.914C.925 19.915 0 20.83 0 21.957 0 23.084.926 24 2.065 24zm27.87-12.255c.57 0 1.033.458 1.033 1.021s-.463 1.021-1.033 1.021c-.569 0-1.032-.458-1.032-1.021s.463-1.021 1.032-1.021zm-19.612 8.17c-.57 0-1.033-.458-1.033-1.021 0-.564.463-1.022 1.033-1.022.569 0 1.032.458 1.032 1.022 0 .563-.463 1.02-1.032 1.02zm10.322-6.128c-.57 0-1.032-.458-1.032-1.021s.463-1.021 1.032-1.021c.57 0 1.032.458 1.032 1.021s-.463 1.021-1.032 1.021zM16.516 1.021h9.29v11.234h-3.17a2.058 2.058 0 0 0-1.99-1.532c-1.14 0-2.065.916-2.065 2.043 0 .174.029.341.07.503l-2.135 1.32V1.021zM6.194 6.128h9.29v9.1l-3.665 2.266a2.064 2.064 0 0 0-1.496-.643c-1.139 0-2.065.916-2.065 2.043 0 .054.012.105.016.158l-2.08.823V6.128zm-4.13 14.808c.57 0 1.033.458 1.033 1.021 0 .564-.463 1.022-1.032 1.022-.57 0-1.033-.458-1.033-1.022 0-.563.463-1.02 1.033-1.02z"/>
        <path d="M6.5 10h2a.5.5 0 0 0 .5-.5v-2a.5.5 0 0 0-.5-.5h-2a.5.5 0 0 0-.5.5v2a.5.5 0 0 0 .5.5zM7 8h1v1H7V8zM12.5 10h2a.5.5 0 0 0 .5-.5v-2a.5.5 0 0 0-.5-.5h-2a.5.5 0 0 0-.5.5v2a.5.5 0 0 0 .5.5zm.5-2h1v1h-1V8zM9 14.5v-2a.5.5 0 0 0-.5-.5h-2a.5.5 0 0 0-.5.5v2a.5.5 0 0 0 .5.5h2a.5.5 0 0 0 .5-.5zM8 14H7v-1h1v1zM12.5 15h2a.5.5 0 0 0 .5-.5v-2a.5.5 0 0 0-.5-.5h-2a.5.5 0 0 0-.5.5v2a.5.5 0 0 0 .5.5zm.5-2h1v1h-1v-1zM17.5 6h2a.5.5 0 0 0 .5-.5v-2a.5.5 0 0 0-.5-.5h-2a.5.5 0 0 0-.5.5v2a.5.5 0 0 0 .5.5zm.5-2h1v1h-1V4zM22.5 6h2a.5.5 0 0 0 .5-.5v-2a.5.5 0 0 0-.5-.5h-2a.5.5 0 0 0-.5.5v2a.5.5 0 0 0 .5.5zm.5-2h1v1h-1V4zM17.5 10h2a.5.5 0 0 0 .5-.5v-2a.5.5 0 0 0-.5-.5h-2a.5.5 0 0 0-.5.5v2a.5.5 0 0 0 .5.5zm.5-2h1v1h-1V8zM22.5 10h2a.5.5 0 0 0 .5-.5v-2a.5.5 0 0 0-.5-.5h-2a.5.5 0 0 0-.5.5v2a.5.5 0 0 0 .5.5zm.5-2h1v1h-1V8z"/>
    </g>
</svg>
