<svg xmlns="http://www.w3.org/2000/svg" width="34" height="36" viewBox="0 0 34 36">
    <g fill="#FFF" fill-rule="nonzero">
        <path d="M16.987 35.672a6.377 6.377 0 0 1-6.37-6.37 1.274 1.274 0 0 1 2.548 0 3.826 3.826 0 0 0 3.822 3.822 3.825 3.825 0 0 0 3.822-3.822 1.274 1.274 0 0 1 2.548 0 6.377 6.377 0 0 1-6.37 6.37z"/>
        <path d="M31 30.576H2.974A2.976 2.976 0 0 1 0 27.604c0-.87.379-1.694 1.04-2.26a11.384 11.384 0 0 0 4.056-8.717V11.89C5.096 5.334 10.43 0 16.986 0c6.558 0 11.892 5.334 11.892 11.89v4.737c0 3.361 1.472 6.534 4.039 8.705a2.973 2.973 0 0 1 1.057 2.272A2.976 2.976 0 0 1 31 30.576zM16.988 2.548c-5.152 0-9.343 4.19-9.343 9.343v4.736c0 4.112-1.802 7.995-4.943 10.65a.423.423 0 0 0-.153.327c0 .23.194.424.425.424H31a.43.43 0 0 0 .425-.424.42.42 0 0 0-.15-.323 13.926 13.926 0 0 1-4.946-10.654V11.89c0-5.152-4.191-9.343-9.343-9.343z"/>
    </g>
</svg>
