<svg xmlns="http://www.w3.org/2000/svg" width="30" height="30" viewBox="0 0 30 30">
    <g fill="#666666" fill-rule="nonzero">
        <path d="M8.333 16.667a2.503 2.503 0 0 0-2.5 2.5c0 1.378 1.122 2.5 2.5 2.5 1.379 0 2.5-1.122 2.5-2.5 0-1.379-1.121-2.5-2.5-2.5zm0 3a.5.5 0 1 1 .001-1.001.5.5 0 0 1 0 1zM21.667 16.667a2.503 2.503 0 0 0-2.5 2.5c0 1.378 1.121 2.5 2.5 2.5 1.378 0 2.5-1.122 2.5-2.5 0-1.379-1.122-2.5-2.5-2.5zm0 3a.5.5 0 1 1 0-1.001.5.5 0 0 1 0 1z"/>
        <path d="M28.986 6.778h-.779v-2.26c0-2.49-2-4.518-4.46-4.518H6.355c-2.46 0-4.46 2.027-4.46 4.519v2.26h-.88C.454 6.778 0 7.237 0 7.804v3.61a1.02 1.02 0 0 0 1.014 1.028h.88v8.816c0 1.4.631 2.652 1.62 3.482v1.756c0 1.472 1.182 2.67 2.635 2.67h1.774c1.453 0 2.635-1.198 2.635-2.67v-.72h8.985v.72c0 1.472 1.182 2.67 2.635 2.67h1.774c1.453 0 2.635-1.198 2.635-2.67V24.75v-.009a4.535 4.535 0 0 0 1.62-3.482v-8.816h.78c.56 0 1.013-.46 1.013-1.027v-3.61a1.02 1.02 0 0 0-1.014-1.028zm-5.238 16.946H6.354c-1.342 0-2.433-1.106-2.433-2.465V15.61h22.26v5.649c0 1.359-1.092 2.465-2.433 2.465zM3.92 13.556V5.443h22.26v8.113H3.92zM6.354 2.054h17.394c.94 0 1.756.543 2.16 1.335H4.194a2.431 2.431 0 0 1 2.16-1.335zM8.53 26.497a.62.62 0 0 1-.608.616H6.15a.62.62 0 0 1-.608-.616V25.7c.264.05.535.077.813.077H8.53v.719zm16.03 0a.62.62 0 0 1-.61.616h-1.773a.62.62 0 0 1-.608-.616v-.72h2.178c.277 0 .549-.026.812-.076v.796z"/>
    </g>
</svg>
