<svg xmlns="http://www.w3.org/2000/svg" width="67" height="35" viewBox="0 0 67 35">
    <g fill="#000" fill-rule="nonzero">
        <path d="M66.277 1.72a2.736 2.736 0 0 0-2.029-.91h-.816c-2.142 0-3.897 1.638-4.084 3.81l-.884 10.252c-.078.908-.812 1.593-1.708 1.593H49.11c-2.45 0-4.443 2.03-4.443 4.526v.45c0 1.507 1.204 2.734 2.684 2.734h1.639l-1.614 5.368-.004.012-1.233 4.103a.915.915 0 0 0 .594 1.14.898.898 0 0 0 1.119-.605l1.04-3.461h12.285l1.04 3.46a.898.898 0 0 0 .856.646.88.88 0 0 0 .263-.04.915.915 0 0 0 .594-1.14l-2.928-9.738a6.503 6.503 0 0 0 1.476-.631.921.921 0 0 0 .332-1.245.887.887 0 0 0-1.223-.338 4.727 4.727 0 0 1-2.38.644H47.351a.902.902 0 0 1-.894-.91v-.449c0-1.49 1.19-2.701 2.652-2.701h7.646c1.831 0 3.333-1.401 3.493-3.259l.883-10.25c.106-1.224 1.094-2.146 2.3-2.146h.816c.273 0 .524.112.708.317.185.205.273.47.249.746l-1.223 14.196c-.03.35-.097.697-.2 1.03a.915.915 0 0 0 .59 1.142.893.893 0 0 0 1.121-.6c.14-.457.232-.933.274-1.412L66.99 3.858a2.844 2.844 0 0 0-.713-2.138zM50.863 24.175h8.342l1.423 4.733H49.44l1.423-4.733zM17.89 16.465h-7.646c-.896 0-1.63-.685-1.708-1.593L7.652 4.62C7.465 2.448 5.71.81 3.568.81h-.816c-.77 0-1.51.33-2.03.909A2.843 2.843 0 0 0 .01 3.858l1.224 14.196a6.738 6.738 0 0 0 2.111 4.36 6.541 6.541 0 0 0 2.652 1.507L3.07 33.658a.915.915 0 0 0 .594 1.14.898.898 0 0 0 1.119-.605l1.04-3.461h12.285l1.04 3.46a.898.898 0 0 0 .857.646.88.88 0 0 0 .262-.04.915.915 0 0 0 .594-1.14l-1.233-4.103-.004-.012-1.614-5.368h1.639c1.48 0 2.684-1.227 2.684-2.734v-.45c0-2.496-1.993-4.526-4.443-4.526zM6.372 28.907l1.422-4.732h8.343l1.422 4.732H6.372zm14.17-7.466c0 .501-.4.91-.893.91H7.794c-.192 0-.38-.013-.566-.035-2.241-.264-4.008-2.076-4.21-4.422L1.795 3.698a.979.979 0 0 1 .248-.746.942.942 0 0 1 .709-.317h.816c1.206 0 2.194.922 2.3 2.145l.883 10.251c.16 1.858 1.661 3.259 3.493 3.259h7.646c1.462 0 2.652 1.211 2.652 2.7v.45z"/>
        <path d="M40.506 31.697c-.381-1.51-1.703-2.565-3.215-2.565h-.571V11.797H48.08c.655 0 1.267-.3 1.68-.824a2.283 2.283 0 0 0 .444-1.865c-.397-1.991-2.114-3.437-4.084-3.437H26.939c-.51 0-.923.427-.923.953 0 .525.413.952.923.952H46.12c1.098 0 2.055.805 2.277 1.915a.337.337 0 0 1-.066.279.316.316 0 0 1-.251.122H18.919a.316.316 0 0 1-.25-.122.337.337 0 0 1-.067-.278c.222-1.11 1.179-1.916 2.277-1.916h1.733c.51 0 .922-.427.922-.952 0-.526-.413-.953-.922-.953h-1.733c-1.97 0-3.687 1.446-4.084 3.437-.132.662.03 1.341.443 1.865a2.135 2.135 0 0 0 1.68.824H30.28v17.335h-.57c-1.513 0-2.835 1.055-3.216 2.565l-.216.86a1.857 1.857 0 0 0 .312 1.573c.337.45.846.708 1.397.708h11.026c.551 0 1.06-.258 1.397-.708.337-.45.45-1.023.312-1.574l-.216-.859zm-8.38-19.9h2.749v17.335h-2.75V11.797zm-4.037 21.136l.191-.757c.17-.671.757-1.14 1.43-1.14h7.58c.673 0 1.26.469 1.43 1.14l.19.757H28.09z"/>
    </g>
</svg>
