<svg xmlns="http://www.w3.org/2000/svg" width="14" height="23" viewBox="0 0 14 23">
    <path fill="#666" fill-rule="nonzero" d="M7.98 10.42H5.29c-1.533 0-2.78-1.074-2.78-2.393 0-1.32 1.248-2.392 2.78-2.392h5.379c.693 0 1.255-.484 1.255-1.081s-.562-1.08-1.255-1.08H7.89V1.08C7.89.484 7.328 0 6.635 0 5.94 0 5.379.484 5.379 1.08v2.393h-.09C2.374 3.473 0 5.516 0 8.027c0 2.51 2.373 4.554 5.29 4.554h2.69c1.532 0 2.778 1.073 2.778 2.392s-1.246 2.392-2.778 2.392H2.6c-.693 0-1.255.484-1.255 1.081s.562 1.08 1.255 1.08h2.78v2.393c0 .597.561 1.081 1.255 1.081.693 0 1.255-.484 1.255-1.08v-2.393h.09c2.916 0 5.29-2.043 5.29-4.554s-2.374-4.554-5.29-4.554z"/>
</svg>
