<svg xmlns="http://www.w3.org/2000/svg" width="50" height="50" viewBox="0 0 50 50">
    <g fill="#000" fill-rule="nonzero">
        <path d="M27.083 21.875h1.042v1.042h-1.042zM22.917 27.083h5.208v1.042h-5.208zM45.066 43.056a5.894 5.894 0 0 0-.935.071c-.406-2.271-2.936-3.837-5.65-3.497-2.16.27-3.856 1.69-4.179 3.497a5.65 5.65 0 0 0-1.783 0c-.406-2.271-2.936-3.837-5.65-3.497-2.16.27-3.856 1.69-4.18 3.497a5.65 5.65 0 0 0-1.783 0c-.406-2.271-2.936-3.837-5.65-3.497-2.16.27-3.856 1.69-4.18 3.497-2.69-.421-5.279 1.062-5.783 3.314a3.5 3.5 0 0 0-.085.782v2.083c0 .383.372.694.83.694h8.295c.458 0 .83-.31.83-.694v-2.083a3.507 3.507 0 0 0-.076-.694h1.809c-.048.23-.073.461-.075.694v2.083c0 .383.371.694.83.694h8.294c.458 0 .83-.31.83-.694v-2.083a3.507 3.507 0 0 0-.075-.694h1.808c-.048.23-.073.461-.074.694v2.083c0 .383.371.694.83.694h8.294c.458 0 .83-.31.83-.694v-2.083a3.507 3.507 0 0 0-.075-.694h1.808c-.048.23-.073.461-.075.694v2.083c0 .383.372.694.83.694h8.294c.458 0 .83-.31.83-.694v-2.083c.012-2.29-2.196-4.156-4.934-4.167zm-31.563 5.556H6.867v-1.389c0-1.533 1.486-2.777 3.318-2.777 1.833 0 3.318 1.244 3.318 2.777v1.389zm3.992-3.472h-3.006c-.434-.625-1.054-1.146-1.8-1.51.07-1.528 1.607-2.717 3.43-2.658 1.726.056 3.109 1.214 3.176 2.657-.746.365-1.367.886-1.8 1.511zm7.62 3.472H18.48v-1.389c0-1.533 1.485-2.777 3.318-2.777 1.832 0 3.318 1.244 3.318 2.777v1.389zm3.992-3.472h-3.006c-.434-.625-1.054-1.146-1.8-1.51.071-1.528 1.607-2.717 3.431-2.658 1.725.056 3.108 1.214 3.175 2.657-.746.365-1.366.886-1.8 1.511zm7.621 3.472h-6.635v-1.389c0-1.533 1.485-2.777 3.317-2.777 1.833 0 3.318 1.244 3.318 2.777v1.389zm3.992-3.472h-3.006c-.434-.625-1.054-1.146-1.8-1.51.07-1.528 1.607-2.717 3.431-2.658 1.725.056 3.108 1.214 3.175 2.657-.746.365-1.366.886-1.8 1.511zm7.621 3.472h-6.636v-1.389c0-1.533 1.486-2.777 3.318-2.777s3.318 1.244 3.318 2.777v1.389z"/>
        <path d="M49.167 0H.833C.373 0 0 .412 0 .92v3.683c0 .508.373.92.833.92H2.5v24.855c0 .508.373.92.833.92h15.311l.384 2.762h-.695c-.46 0-.833.412-.833.92v3.683c0 .508.373.92.833.92h13.334c.46 0 .833-.412.833-.92V34.98c0-.509-.373-.92-.833-.92h-.695l.384-2.763h15.31c.46 0 .834-.412.834-.92V5.523h1.667c.46 0 .833-.412.833-.92V.92C50 .412 49.627 0 49.167 0zM30.833 37.742H19.167v-1.84h11.666v1.84zM19.305 23.934h11.39l-1.41 10.126h-8.57l-1.41-10.126zm-2.82-1.841l-.418-1.841h17.865l-.416 1.841H16.484zm29.348 7.364h-14.22l.769-5.523h1.785c.382 0 .715-.288.808-.698l.833-3.682c.112-.493-.16-.993-.607-1.116a.757.757 0 0 0-.201-.027h-1.667v-2.762a.971.971 0 0 0-.244-.65l-1.672-1.849c.163-.368.248-.773.25-1.183 0-1.525-1.12-2.762-2.5-2.762-1.381 0-2.5 1.237-2.5 2.762s1.119 2.762 2.5 2.762a2.27 2.27 0 0 0 1.07-.276l1.43 1.577v2.38H18.333v-2.38l1.43-1.577c.333.18.7.274 1.07.276 1.381 0 2.5-1.237 2.5-2.762s-1.119-2.762-2.5-2.762c-1.38 0-2.5 1.237-2.5 2.762.002.41.087.815.25 1.183l-1.673 1.848a.972.972 0 0 0-.243.651v2.762H15c-.46 0-.833.412-.833.92 0 .076.008.15.025.223l.833 3.682c.093.41.426.698.808.698h1.785l.77 5.523H4.166V5.523h41.666v23.934zM30 11.967c0 .508-.373.92-.833.92-.46 0-.834-.412-.834-.92s.373-.92.834-.92c.46 0 .833.412.833.92zm-10 0c0-.508.373-.92.833-.92.46 0 .834.412.834.92s-.373.92-.834.92c-.46 0-.833-.412-.833-.92zm28.333-8.285H1.667v-1.84h46.666v1.84z"/>
    </g>
</svg>
