<svg xmlns="http://www.w3.org/2000/svg" width="50" height="50" viewBox="0 0 50 50">
    <path fill="#000" fill-rule="nonzero" d="M49.167 21.667h-.984L46.65 14a.834.834 0 0 0-.817-.667h-10c-.027 0-.051.015-.079.018a.815.815 0 0 0-.226.05.847.847 0 0 0-.285.194c-.016.017-.039.025-.054.044-.015.018-.01.024-.017.035a.805.805 0 0 0-.113.222.88.88 0 0 0-.042.104l-1.534 7.667H21.667v-.834a2.5 2.5 0 0 0-2.5-2.5v-1.666h6.666a2.5 2.5 0 0 0 2.5-2.5V2.5a2.5 2.5 0 0 0-2.5-2.5h-20a2.5 2.5 0 0 0-2.5 2.5v11.667a2.5 2.5 0 0 0 2.5 2.5H12.5v1.666a2.5 2.5 0 0 0-2.5 2.5v.834H.833A.833.833 0 0 0 0 22.5v26.667c0 .46.373.833.833.833h3.334c.46 0 .833-.373.833-.833v-5.834h40v5.834c0 .46.373.833.833.833h3.334c.46 0 .833-.373.833-.833V22.5a.833.833 0 0 0-.833-.833zM45.15 15l1.333 6.667h-8.3L36.85 15h8.3zm-9.411 3.89l.694 2.777h-1.25l.556-2.777zM5 2.5c0-.46.373-.833.833-.833h20c.46 0 .834.373.834.833v9.167H5V2.5zm0 11.667v-.834h21.667v.834c0 .46-.373.833-.834.833h-20A.833.833 0 0 1 5 14.167zm9.167 2.5H17.5v1.666h-3.333v-1.666zm-2.5 4.166c0-.46.373-.833.833-.833h6.667c.46 0 .833.373.833.833v.834h-8.333v-.834zM5 41.667v-15h40v15H5zm43.333 6.666h-1.666v-22.5a.833.833 0 0 0-.834-.833H4.167a.833.833 0 0 0-.834.833v22.5H1.667v-25h46.666v25z"/>
</svg>
