<svg xmlns="http://www.w3.org/2000/svg" width="33" height="31" viewBox="0 0 33 31">
    <g fill="#666666" fill-rule="nonzero">
        <path d="M32.649 12.763L17.007.182a.796.796 0 0 0-1.013 0L.35 12.763c-.382.308-.465.897-.185 1.317.28.42 1.753.51 2.135.203L16.5 3.034l14.702 11.431c.153.123.764 0 .94 0a.834.834 0 0 0 .692-.385c.28-.42.197-1.01-.185-1.317z"/>
        <path d="M28.204 14.52c-.462 0-1.528.375-1.528.837v12.39h-5.284V21.41c0-2.309-2.587-4.959-4.892-4.959s-4.875 2.65-4.875 4.959v6.337H6.303v-12.39c0-.462-1.045-.837-1.507-.837a.837.837 0 0 0-.836.837v14.166c0 .462.374.837.836.837h8.36a.836.836 0 0 0 .836-.837V21.41a2.513 2.513 0 0 1 2.508-2.512 2.513 2.513 0 0 1 2.508 2.512v8.113a.836.836 0 0 0 .836.837h8.36a.837.837 0 0 0 .836-.837V15.357a.837.837 0 0 0-.836-.837z"/>
    </g>
</svg>
