<svg xmlns="http://www.w3.org/2000/svg" width="50" height="56" viewBox="0 0 50 56">
    <g fill="#000" fill-rule="nonzero">
        <path d="M44.318 20.556H40.91v-2.593c0-.716-.509-1.296-1.136-1.296H1.136c-.627 0-1.136.58-1.136 1.296v19.444c.007 6.804 3.595 12.938 9.1 15.556H0v2.593h40.91v-2.593h-9.1c5.504-2.618 9.092-8.752 9.1-15.556v-2.592h3.408c3.137-.004 5.678-2.904 5.682-6.482v-1.296c-.004-3.578-2.545-6.477-5.682-6.481zm-5.681 16.851c-.009 7.872-5.6 14.25-12.5 14.26H14.772c-6.9-.01-12.492-6.388-12.5-14.26V19.26h25v5.945L23.06 30.01a1.394 1.394 0 0 0-.333.917v10.37c0 .716.51 1.297 1.137 1.297h9.09c.628 0 1.137-.58 1.137-1.297v-10.37c0-.344-.12-.673-.333-.916l-4.212-4.806V19.26h9.09v18.148zm-10.228-9.833l3.41 3.889V40H25v-8.537l3.41-3.89zm19.318.76c0 2.147-1.526 3.888-3.409 3.888H40.91v-9.074h3.41c1.882 0 3.408 1.741 3.408 3.889v1.296zM5.556 16.667h2.777c0-.78.302-1.111.982-1.793a4.833 4.833 0 0 0 0-7.518c-.68-.681-.982-1.016-.982-1.8 0-.785.302-1.112.984-1.798A4.955 4.955 0 0 0 11.11 0H8.333c0 .78-.301 1.111-.983 1.797a4.955 4.955 0 0 0-1.794 3.759A4.949 4.949 0 0 0 7.35 9.319c.681.681.982 1.017.982 1.792 0 .775-.301 1.111-.982 1.792a4.951 4.951 0 0 0-1.795 3.764zM27.778 16.667h2.777c0-.78.302-1.111.982-1.793a4.833 4.833 0 0 0 0-7.519c-.68-.68-.982-1.015-.982-1.8 0-.784.302-1.11.984-1.797A4.955 4.955 0 0 0 33.333 0h-2.777c0 .78-.302 1.111-.984 1.797a4.955 4.955 0 0 0-1.794 3.759 4.95 4.95 0 0 0 1.796 3.764c.68.68.982 1.016.982 1.791 0 .775-.302 1.111-.982 1.792a4.95 4.95 0 0 0-1.796 3.764zM16.667 16.667h2.777c0-.78.302-1.111.982-1.793a4.833 4.833 0 0 0 0-7.519c-.68-.68-.982-1.015-.982-1.8 0-.784.302-1.11.984-1.797A4.955 4.955 0 0 0 22.222 0h-2.778c0 .78-.301 1.111-.983 1.797a4.955 4.955 0 0 0-1.794 3.759 4.95 4.95 0 0 0 1.796 3.764c.68.68.981 1.016.981 1.791 0 .775-.301 1.111-.981 1.792a4.951 4.951 0 0 0-1.796 3.764z"/>
    </g>
</svg>
