<svg xmlns="http://www.w3.org/2000/svg" width="18" height="27" viewBox="0 0 18 27">
    <g fill="#666" fill-rule="nonzero">
        <path d="M9 0C4.037 0 0 4.11 0 9.163c0 2.03 1.174 5.119 3.695 9.718 1.72 3.138 3.432 5.789 3.505 5.9l1.237 1.91A.671.671 0 0 0 9 27a.671.671 0 0 0 .563-.309l1.237-1.91c.072-.11 1.772-2.738 3.505-5.9C16.825 14.28 18 11.194 18 9.163 18 4.111 13.963 0 9 0zm4.127 18.212a102.071 102.071 0 0 1-3.452 5.813L9 25.067l-.675-1.041c-.07-.11-1.756-2.72-3.452-5.814-2.339-4.267-3.524-7.311-3.524-9.049 0-4.295 3.432-7.79 7.651-7.79 4.219 0 7.651 3.495 7.651 7.79 0 1.738-1.185 4.782-3.524 9.049z"/>
        <path d="M9 4C6.243 4 4 6.243 4 9s2.243 5 5 5 5-2.243 5-5-2.243-5-5-5zm0 8.649A3.653 3.653 0 0 1 5.351 9 3.653 3.653 0 0 1 9 5.351 3.653 3.653 0 0 1 12.649 9 3.653 3.653 0 0 1 9 12.649z"/>
    </g>
</svg>
