<svg xmlns="http://www.w3.org/2000/svg" width="23" height="32" viewBox="0 0 23 32">
    <g fill="none" fill-rule="nonzero" stroke="#EA7B4D" stroke-width="2">
        <path d="M4.456 12.014v17.321c0 .452.211.842.635 1.172.417.325.91.488 1.477.493.567-.005 1.06-.168 1.477-.493.424-.33.635-.72.635-1.172v-17.32c.636-.174 3.017-1.828 3.017-2.358V2.69c0-.225-.106-.42-.318-.585a1.19 1.19 0 0 0-.752-.248c-.29 0-.54.083-.752.248-.212.165-.317.36-.317.585v5.417c0 .226-.106.421-.318.586a1.187 1.187 0 0 1-.752.247c-.29 0-.54-.082-.752-.247-.212-.165-.318-.36-.318-.586V2.69c0-.225-.106-.42-.317-.585a1.188 1.188 0 0 0-.752-.248c-.29 0-.541.083-.752.248-.212.165-.318.36-.318.585v5.417c0 .226-.106.421-.318.586a1.187 1.187 0 0 1-.752.247c-.29 0-.54-.082-.752-.247-.212-.165-.318-.36-.318-.586V2.69c0-.225-.105-.42-.317-.585a1.188 1.188 0 0 0-.752-.248c-.29 0-.54.083-.752.248-.212.165-.318.36-.318.585v6.967c0 .53 2.82 2.183 3.456 2.357zM14.716 15.917h2.502v13.427c0 .45.218.838.654 1.166.43.322.938.485 1.523.49.584-.005 1.092-.168 1.522-.49.436-.328.654-.717.654-1.166V1.83c0-.224-.109-.419-.327-.583A1.254 1.254 0 0 0 20.47 1h-.792c-1.516 0-2.813.406-3.892 1.217-1.08.812-1.62 1.787-1.62 2.927v10.359c0 .112.055.209.164.29a.625.625 0 0 0 .387.124z"/>
    </g>
</svg>
