<svg xmlns="http://www.w3.org/2000/svg" width="50" height="42" viewBox="0 0 50 42">
    <path fill="#FFF" fill-rule="nonzero" d="M49.745.168a.808.808 0 0 0-.807-.105L.432 20.518a.678.678 0 0 0-.432.608.675.675 0 0 0 .418.616l13.727 6.114a.811.811 0 0 0 .777-.066l13.346-9.053-10.477 9.781a.643.643 0 0 0-.21.525l1.044 12.33c.023.274.225.507.511.593a.82.82 0 0 0 .234.034.782.782 0 0 0 .566-.235l7.285-7.663 9.007 3.906a.817.817 0 0 0 .62.01.706.706 0 0 0 .415-.419L49.966.882a.639.639 0 0 0-.22-.714z"/>
</svg>
