<svg xmlns="http://www.w3.org/2000/svg" width="30" height="29" viewBox="0 0 30 29">
    <g fill="#666666" fill-rule="nonzero">
        <path d="M9.666 19.167H25.606c.392 0 .737-.284.845-.695l3.515-13.417c.076-.29.023-.6-.143-.84a.857.857 0 0 0-.702-.382H7.64L7.01.75C6.92.312 6.564 0 6.152 0H.88C.393 0 0 .429 0 .958c0 .53.393.959.879.959h4.568l3.174 15.57c-.934.443-1.59 1.458-1.59 2.638C7.031 21.71 8.214 23 9.668 23h15.938c.485 0 .878-.429.878-.958 0-.53-.393-.959-.878-.959H9.668c-.485 0-.879-.43-.879-.958s.393-.957.877-.958zM27.956 5.75l-3.014 11.5h-14.57L8.03 5.75h19.927zM8.182 26c0 1.654 1.223 3 2.727 3 1.504 0 2.727-1.346 2.727-3s-1.223-3-2.727-3c-1.504 0-2.727 1.346-2.727 3zm2.727-1c.501 0 .91.449.91 1 0 .551-.409 1-.91 1-.501 0-.909-.449-.909-1 0-.551.408-1 .91-1zM20.91 26c0 1.654 1.223 3 2.726 3 1.504 0 2.728-1.346 2.728-3s-1.224-3-2.728-3c-1.503 0-2.727 1.346-2.727 3zm2.726-1c.502 0 .91.449.91 1 0 .551-.408 1-.91 1-.5 0-.909-.449-.909-1 0-.551.408-1 .91-1z"/>
    </g>
</svg>
