<svg xmlns="http://www.w3.org/2000/svg" width="22" height="25" viewBox="0 0 22 25">
    <path fill="#FFF" fill-rule="nonzero" d="M4.458 16.618c2.178 2.948 4.8 5.269 7.793 6.91 1.14.612 2.663 1.337 4.36 1.462.106.005.207.01.312.01 1.14 0 2.055-.446 2.8-1.362a.112.112 0 0 0 .019-.026c.265-.363.567-.69.883-1.036.215-.233.435-.477.645-.726.975-1.15.975-2.61-.009-3.724l-2.75-3.114c-.467-.549-1.025-.839-1.61-.839-.587 0-1.15.29-1.63.834l-1.638 1.855c-.151-.099-.307-.187-.453-.27a5.492 5.492 0 0 1-.503-.31c-1.492-1.073-2.847-2.471-4.142-4.269-.654-.938-1.093-1.725-1.4-2.528.43-.44.833-.901 1.222-1.352.137-.16.279-.321.42-.482.495-.56.76-1.207.76-1.865 0-.658-.26-1.305-.76-1.865L7.415 2.378c-.16-.182-.31-.358-.466-.539a26.965 26.965 0 0 0-.93-1.041C5.549.275 4.995 0 4.409 0c-.581 0-1.14.275-1.63.803L1.069 2.74C.444 3.445.092 4.3.02 5.29c-.087 1.237.114 2.553.636 4.143.8 2.46 2.008 4.745 3.802 7.185z"/>
</svg>
