<svg xmlns="http://www.w3.org/2000/svg" width="34" height="34" viewBox="0 0 34 34">
    <path fill="#FFF" fill-rule="nonzero" d="M29.02 21.98a16.935 16.935 0 0 0-6.46-4.053 9.825 9.825 0 0 0 4.268-8.099C26.828 4.408 22.42 0 17 0c-5.42 0-9.828 4.409-9.828 9.828a9.824 9.824 0 0 0 4.267 8.1c-2.404.829-4.608 2.2-6.46 4.051A16.889 16.889 0 0 0 0 34h2.656c0-7.91 6.435-14.344 14.344-14.344 7.91 0 14.344 6.435 14.344 14.344H34c0-4.54-1.768-8.81-4.98-12.02zM17 17c-3.955 0-7.172-3.217-7.172-7.172 0-3.954 3.217-7.172 7.172-7.172 3.955 0 7.172 3.217 7.172 7.172C24.172 13.783 20.955 17 17 17z"/>
</svg>
