<svg xmlns="http://www.w3.org/2000/svg" width="26" height="26" viewBox="0 0 26 26">
    <path fill="#666" fill-rule="nonzero" d="M22.192 16.808a12.95 12.95 0 0 0-4.94-3.099 7.513 7.513 0 0 0 3.264-6.193C20.516 3.372 17.144 0 13 0S5.484 3.372 5.484 7.516a7.513 7.513 0 0 0 3.264 6.193 12.95 12.95 0 0 0-4.94 3.099A12.915 12.915 0 0 0 0 26h2.031c0-6.048 4.92-10.969 10.969-10.969 6.048 0 10.969 4.92 10.969 10.969H26c0-3.472-1.352-6.737-3.808-9.192zM13 13a5.49 5.49 0 0 1-5.484-5.484A5.49 5.49 0 0 1 13 2.03a5.49 5.49 0 0 1 5.484 5.485A5.49 5.49 0 0 1 13 13z"/>
</svg>
