<svg xmlns="http://www.w3.org/2000/svg" width="25" height="22" viewBox="0 0 25 22">
    <path fill="#FFF" fill-rule="evenodd" d="M16.838 7.227c4.349 0 7.887 3.108 7.887 6.928 0 1.986-.943 3.835-2.607 5.149l.377 1.173a.718.718 0 0 1-.199.748.752.752 0 0 1-.773.152l-1.95-.722a8.825 8.825 0 0 1-2.735.428c-4.349 0-7.887-3.108-7.887-6.928s3.538-6.928 7.887-6.928zM9.116.128c2.345 0 4.554.794 6.219 2.236 1.104.955 1.883 2.118 2.292 3.39a10.67 10.67 0 0 0-.392-.007c-2.397 0-4.661.826-6.374 2.326a8.13 8.13 0 0 0-1.983 2.579 7.317 7.317 0 0 0-.54 4.909 9.946 9.946 0 0 1-1.755-.291l-2.207 1.318a.732.732 0 0 1-.8-.03.696.696 0 0 1-.279-.733l.44-1.827C1.56 12.538.275 10.278.275 7.86c0-2.081.93-4.033 2.621-5.496C4.562.922 6.771.128 9.116.128zm4.955 11.447a.756.756 0 0 0-.525.213.728.728 0 0 0-.219.515c0 .192.08.38.219.515a.757.757 0 0 0 1.05 0 .725.725 0 0 0 .218-.515c0-.192-.08-.379-.218-.515a.757.757 0 0 0-.525-.213zm5.15 0a.756.756 0 0 0-.526.213.726.726 0 0 0-.218.515c0 .192.08.38.218.515a.757.757 0 0 0 1.05 0 .725.725 0 0 0 .218-.515c0-.192-.08-.379-.218-.515a.756.756 0 0 0-.525-.213zM6.225 4.641a.736.736 0 0 0-.51.206.702.702 0 0 0-.211.499c0 .185.077.366.211.498a.736.736 0 0 0 1.02 0 .701.701 0 0 0 .211-.498.7.7 0 0 0-.21-.499.737.737 0 0 0-.51-.206zm4.736 0a.737.737 0 0 0-.51.206.7.7 0 0 0-.21.499c0 .185.076.366.21.498a.736.736 0 0 0 1.02 0 .702.702 0 0 0 .212-.498.702.702 0 0 0-.212-.499.738.738 0 0 0-.51-.206z"/>
</svg>
