<svg xmlns="http://www.w3.org/2000/svg" width="36" height="36" viewBox="0 0 36 36">
    <path fill="#FFF" fill-rule="nonzero" d="M18 0C8.075 0 0 8.075 0 18s8.075 18 18 18 18-8.075 18-18S27.925 0 18 0zm-7.892 3.965a9.808 9.808 0 0 0-1.796 4.097 7.867 7.867 0 0 1-2.28-.827 16.216 16.216 0 0 1 4.076-3.27zM4.836 8.732a9.746 9.746 0 0 0 3.312 1.226v7.095H1.923a16.01 16.01 0 0 1 2.913-8.32zm0 18.536a16.01 16.01 0 0 1-2.913-8.32h6.225v7.094a9.747 9.747 0 0 0-3.312 1.226zm1.196 1.497a7.865 7.865 0 0 1 2.28-.828 9.809 9.809 0 0 0 1.796 4.098 16.215 16.215 0 0 1-4.076-3.27zm11.02 5.278a7.975 7.975 0 0 1-6.837-6.255h6.838v6.255zm0-8.15h-7.009v-6.946h7.01v6.947zm0-8.84h-7.009v-6.947h7.01v6.947zm0-8.841h-6.837a7.975 7.975 0 0 1 6.838-6.255v6.255zm14.112.52a16.01 16.01 0 0 1 2.913 8.32h-6.225V9.959a9.745 9.745 0 0 0 3.312-1.226zm-1.196-1.497a7.865 7.865 0 0 1-2.28.828 9.809 9.809 0 0 0-1.796-4.098 16.215 16.215 0 0 1 4.076 3.27zm-11.02-5.278a7.975 7.975 0 0 1 6.837 6.255h-6.838V1.957zm0 8.15h7.009v6.946h-7.01v-6.947zm0 8.84h7.009v6.947h-7.01v-6.947zm0 15.096v-6.255h6.837a7.975 7.975 0 0 1-6.838 6.255zm6.944-2.008a9.808 9.808 0 0 0 1.796-4.097 7.867 7.867 0 0 1 2.28.827 16.216 16.216 0 0 1-4.076 3.27zm5.272-4.767a9.746 9.746 0 0 0-3.312-1.226v-7.095h6.225a16.01 16.01 0 0 1-2.913 8.32z"/>
</svg>
